# xmcd CD database file
#
# Track frame offsets:
#	150
#	17087
#	31331
#	49705
#	65167
#	80110
#	97685
#	116107
#	131319
#	147098
#	164216
#	179729
#	193431
#	212029
#
# Disc length: 3012 seconds
#
# Revision: 1
# Processed by: cddbd v1.5PL3 Copyright (c) Steve Scherf et al.
# Submitted via: CDex 1.51
#
DISCID=d40bc20e
DTITLE=The Bots - Now is The Time
DYEAR=2002
DGENRE=Electronic
TTITLE0=Push
TTITLE1=Electronic Paradise
TTITLE2=Freak
TTITLE3=I Feel The Love
TTITLE4=I Just Wanna Be Dancin
TTITLE5=Money
TTITLE6=Computer Control
TTITLE7=It's Driving Me Crazy
TTITLE8=Take The Power Back
TTITLE9=Now Is The Time
TTITLE10=Rock The Beat
TTITLE11=The Secret Of Life
TTITLE12=The Bots Are On A Mission
TTITLE13=The Sea Of Time
EXTD=www.thebots.net YEAR: 2002
EXTT0=
EXTT1=
EXTT2=
EXTT3=
EXTT4=
EXTT5=
EXTT6=
EXTT7=
EXTT8=
EXTT9=
EXTT10=
EXTT11=
EXTT12=
EXTT13=
PLAYORDER=
